<mxfile host="app.diagrams.net" modified="2023-06-29T11:46:41.745Z" agent="Mozilla/5.0 (Windows NT 10.0; Win64; x64) AppleWebKit/537.36 (KHTML, like Gecko) Chrome/114.0.0.0 Safari/537.36" etag="BbPxj1MxvYPuxzMLR8xF" version="21.5.1" type="github">
  <diagram name="Page-1" id="2YBvvXClWsGukQMizWep">
    <mxGraphModel dx="1843" dy="1836" grid="1" gridSize="10" guides="1" tooltips="1" connect="1" arrows="1" fold="1" page="1" pageScale="1" pageWidth="850" pageHeight="1100" math="0" shadow="0">
      <root>
        <mxCell id="0" />
        <mxCell id="1" parent="0" />
        <mxCell id="aM9ryv3xv72pqoxQDRHE-5" value="Coordinator" style="shape=umlLifeline;perimeter=lifelinePerimeter;whiteSpace=wrap;html=1;container=0;dropTarget=0;collapsible=0;recursiveResize=0;outlineConnect=0;portConstraint=eastwest;newEdgeStyle={&quot;edgeStyle&quot;:&quot;elbowEdgeStyle&quot;,&quot;elbow&quot;:&quot;vertical&quot;,&quot;curved&quot;:0,&quot;rounded&quot;:0};" parent="1" vertex="1">
          <mxGeometry x="220" y="-365" width="100" height="1205" as="geometry" />
        </mxCell>
        <mxCell id="aM9ryv3xv72pqoxQDRHE-6" value="" style="html=1;points=[];perimeter=orthogonalPerimeter;outlineConnect=0;targetShapes=umlLifeline;portConstraint=eastwest;newEdgeStyle={&quot;edgeStyle&quot;:&quot;elbowEdgeStyle&quot;,&quot;elbow&quot;:&quot;vertical&quot;,&quot;curved&quot;:0,&quot;rounded&quot;:0};" parent="aM9ryv3xv72pqoxQDRHE-5" vertex="1">
          <mxGeometry x="45" y="197.5" width="10" height="65" as="geometry" />
        </mxCell>
        <mxCell id="NEOFkkt0xLwIz-shKQeP-62" value="" style="html=1;points=[];perimeter=orthogonalPerimeter;outlineConnect=0;targetShapes=umlLifeline;portConstraint=eastwest;newEdgeStyle={&quot;edgeStyle&quot;:&quot;elbowEdgeStyle&quot;,&quot;elbow&quot;:&quot;vertical&quot;,&quot;curved&quot;:0,&quot;rounded&quot;:0};" vertex="1" parent="aM9ryv3xv72pqoxQDRHE-5">
          <mxGeometry x="45" y="470" width="10" height="125" as="geometry" />
        </mxCell>
        <mxCell id="aM9ryv3xv72pqoxQDRHE-7" value="manage coordinator" style="html=1;verticalAlign=bottom;endArrow=block;edgeStyle=elbowEdgeStyle;elbow=vertical;curved=0;rounded=0;" parent="1" source="NEOFkkt0xLwIz-shKQeP-18" target="aM9ryv3xv72pqoxQDRHE-5" edge="1">
          <mxGeometry x="-0.0927" relative="1" as="geometry">
            <mxPoint x="105" y="120" as="sourcePoint" />
            <Array as="points">
              <mxPoint x="180" y="120" />
            </Array>
            <mxPoint as="offset" />
          </mxGeometry>
        </mxCell>
        <mxCell id="V1PZ9N-IoDOIy4KFMMRO-1" value="Teacher" style="shape=umlLifeline;perimeter=lifelinePerimeter;whiteSpace=wrap;html=1;container=0;dropTarget=0;collapsible=0;recursiveResize=0;outlineConnect=0;portConstraint=eastwest;newEdgeStyle={&quot;edgeStyle&quot;:&quot;elbowEdgeStyle&quot;,&quot;elbow&quot;:&quot;vertical&quot;,&quot;curved&quot;:0,&quot;rounded&quot;:0};" parent="1" vertex="1">
          <mxGeometry x="425" y="-365" width="100" height="1205" as="geometry" />
        </mxCell>
        <mxCell id="NEOFkkt0xLwIz-shKQeP-63" value="" style="html=1;points=[];perimeter=orthogonalPerimeter;outlineConnect=0;targetShapes=umlLifeline;portConstraint=eastwest;newEdgeStyle={&quot;edgeStyle&quot;:&quot;elbowEdgeStyle&quot;,&quot;elbow&quot;:&quot;vertical&quot;,&quot;curved&quot;:0,&quot;rounded&quot;:0};" vertex="1" parent="V1PZ9N-IoDOIy4KFMMRO-1">
          <mxGeometry x="45" y="525" width="10" height="80" as="geometry" />
        </mxCell>
        <mxCell id="V1PZ9N-IoDOIy4KFMMRO-3" value="Student" style="shape=umlLifeline;perimeter=lifelinePerimeter;whiteSpace=wrap;html=1;container=0;dropTarget=0;collapsible=0;recursiveResize=0;outlineConnect=0;portConstraint=eastwest;newEdgeStyle={&quot;edgeStyle&quot;:&quot;elbowEdgeStyle&quot;,&quot;elbow&quot;:&quot;vertical&quot;,&quot;curved&quot;:0,&quot;rounded&quot;:0};" parent="1" vertex="1">
          <mxGeometry x="610" y="-365" width="100" height="1205" as="geometry" />
        </mxCell>
        <mxCell id="V1PZ9N-IoDOIy4KFMMRO-4" value="" style="html=1;points=[];perimeter=orthogonalPerimeter;outlineConnect=0;targetShapes=umlLifeline;portConstraint=eastwest;newEdgeStyle={&quot;edgeStyle&quot;:&quot;elbowEdgeStyle&quot;,&quot;elbow&quot;:&quot;vertical&quot;,&quot;curved&quot;:0,&quot;rounded&quot;:0};" parent="V1PZ9N-IoDOIy4KFMMRO-3" vertex="1">
          <mxGeometry x="45" y="80" width="10" height="110" as="geometry" />
        </mxCell>
        <mxCell id="V1PZ9N-IoDOIy4KFMMRO-5" value="System" style="shape=umlLifeline;perimeter=lifelinePerimeter;whiteSpace=wrap;html=1;container=0;dropTarget=0;collapsible=0;recursiveResize=0;outlineConnect=0;portConstraint=eastwest;newEdgeStyle={&quot;edgeStyle&quot;:&quot;elbowEdgeStyle&quot;,&quot;elbow&quot;:&quot;vertical&quot;,&quot;curved&quot;:0,&quot;rounded&quot;:0};" parent="1" vertex="1">
          <mxGeometry x="800" y="-365" width="100" height="1205" as="geometry" />
        </mxCell>
        <mxCell id="V1PZ9N-IoDOIy4KFMMRO-6" value="" style="html=1;points=[];perimeter=orthogonalPerimeter;outlineConnect=0;targetShapes=umlLifeline;portConstraint=eastwest;newEdgeStyle={&quot;edgeStyle&quot;:&quot;elbowEdgeStyle&quot;,&quot;elbow&quot;:&quot;vertical&quot;,&quot;curved&quot;:0,&quot;rounded&quot;:0};" parent="V1PZ9N-IoDOIy4KFMMRO-5" vertex="1">
          <mxGeometry x="45" y="80" width="10" height="100" as="geometry" />
        </mxCell>
        <mxCell id="V1PZ9N-IoDOIy4KFMMRO-24" value="" style="html=1;points=[];perimeter=orthogonalPerimeter;outlineConnect=0;targetShapes=umlLifeline;portConstraint=eastwest;newEdgeStyle={&quot;edgeStyle&quot;:&quot;elbowEdgeStyle&quot;,&quot;elbow&quot;:&quot;vertical&quot;,&quot;curved&quot;:0,&quot;rounded&quot;:0};" parent="V1PZ9N-IoDOIy4KFMMRO-5" vertex="1">
          <mxGeometry x="50" y="305" width="10" height="65" as="geometry" />
        </mxCell>
        <mxCell id="V1PZ9N-IoDOIy4KFMMRO-32" value="" style="html=1;points=[];perimeter=orthogonalPerimeter;outlineConnect=0;targetShapes=umlLifeline;portConstraint=eastwest;newEdgeStyle={&quot;edgeStyle&quot;:&quot;elbowEdgeStyle&quot;,&quot;elbow&quot;:&quot;vertical&quot;,&quot;curved&quot;:0,&quot;rounded&quot;:0};" parent="V1PZ9N-IoDOIy4KFMMRO-5" vertex="1">
          <mxGeometry x="45" y="405" width="10" height="60" as="geometry" />
        </mxCell>
        <mxCell id="V1PZ9N-IoDOIy4KFMMRO-36" value="" style="html=1;points=[];perimeter=orthogonalPerimeter;outlineConnect=0;targetShapes=umlLifeline;portConstraint=eastwest;newEdgeStyle={&quot;edgeStyle&quot;:&quot;elbowEdgeStyle&quot;,&quot;elbow&quot;:&quot;vertical&quot;,&quot;curved&quot;:0,&quot;rounded&quot;:0};" parent="V1PZ9N-IoDOIy4KFMMRO-5" vertex="1">
          <mxGeometry x="45" y="755" width="10" height="65" as="geometry" />
        </mxCell>
        <mxCell id="V1PZ9N-IoDOIy4KFMMRO-41" style="edgeStyle=elbowEdgeStyle;rounded=0;orthogonalLoop=1;jettySize=auto;html=1;elbow=horizontal;curved=0;" parent="V1PZ9N-IoDOIy4KFMMRO-5" target="V1PZ9N-IoDOIy4KFMMRO-5" edge="1">
          <mxGeometry relative="1" as="geometry">
            <mxPoint x="50" y="360" as="sourcePoint" />
          </mxGeometry>
        </mxCell>
        <mxCell id="NEOFkkt0xLwIz-shKQeP-2" style="edgeStyle=elbowEdgeStyle;rounded=0;orthogonalLoop=1;jettySize=auto;html=1;elbow=vertical;curved=0;" edge="1" parent="V1PZ9N-IoDOIy4KFMMRO-5" source="V1PZ9N-IoDOIy4KFMMRO-24" target="V1PZ9N-IoDOIy4KFMMRO-24">
          <mxGeometry relative="1" as="geometry">
            <Array as="points">
              <mxPoint x="70" y="355" />
            </Array>
          </mxGeometry>
        </mxCell>
        <mxCell id="NEOFkkt0xLwIz-shKQeP-35" style="edgeStyle=elbowEdgeStyle;rounded=0;orthogonalLoop=1;jettySize=auto;html=1;elbow=horizontal;curved=0;" edge="1" parent="V1PZ9N-IoDOIy4KFMMRO-5" source="V1PZ9N-IoDOIy4KFMMRO-6" target="V1PZ9N-IoDOIy4KFMMRO-6">
          <mxGeometry relative="1" as="geometry">
            <Array as="points">
              <mxPoint x="75" y="165" />
            </Array>
          </mxGeometry>
        </mxCell>
        <mxCell id="NEOFkkt0xLwIz-shKQeP-55" style="edgeStyle=elbowEdgeStyle;rounded=0;orthogonalLoop=1;jettySize=auto;html=1;elbow=vertical;curved=0;" edge="1" parent="V1PZ9N-IoDOIy4KFMMRO-5" source="V1PZ9N-IoDOIy4KFMMRO-32" target="V1PZ9N-IoDOIy4KFMMRO-32">
          <mxGeometry relative="1" as="geometry">
            <Array as="points">
              <mxPoint x="70" y="415" />
            </Array>
          </mxGeometry>
        </mxCell>
        <mxCell id="NEOFkkt0xLwIz-shKQeP-59" style="edgeStyle=elbowEdgeStyle;rounded=0;orthogonalLoop=1;jettySize=auto;html=1;elbow=vertical;curved=0;" edge="1" parent="V1PZ9N-IoDOIy4KFMMRO-5" source="V1PZ9N-IoDOIy4KFMMRO-36" target="V1PZ9N-IoDOIy4KFMMRO-36">
          <mxGeometry relative="1" as="geometry">
            <Array as="points">
              <mxPoint x="70" y="765" />
            </Array>
          </mxGeometry>
        </mxCell>
        <mxCell id="NEOFkkt0xLwIz-shKQeP-60" value="" style="html=1;points=[];perimeter=orthogonalPerimeter;outlineConnect=0;targetShapes=umlLifeline;portConstraint=eastwest;newEdgeStyle={&quot;edgeStyle&quot;:&quot;elbowEdgeStyle&quot;,&quot;elbow&quot;:&quot;vertical&quot;,&quot;curved&quot;:0,&quot;rounded&quot;:0};" vertex="1" parent="V1PZ9N-IoDOIy4KFMMRO-5">
          <mxGeometry x="45" y="975" width="10" height="95" as="geometry" />
        </mxCell>
        <mxCell id="NEOFkkt0xLwIz-shKQeP-61" style="edgeStyle=elbowEdgeStyle;rounded=0;orthogonalLoop=1;jettySize=auto;html=1;elbow=vertical;curved=0;" edge="1" parent="V1PZ9N-IoDOIy4KFMMRO-5" source="NEOFkkt0xLwIz-shKQeP-60" target="NEOFkkt0xLwIz-shKQeP-60">
          <mxGeometry relative="1" as="geometry">
            <Array as="points">
              <mxPoint x="70" y="995" />
            </Array>
          </mxGeometry>
        </mxCell>
        <mxCell id="NEOFkkt0xLwIz-shKQeP-82" value="" style="html=1;points=[];perimeter=orthogonalPerimeter;outlineConnect=0;targetShapes=umlLifeline;portConstraint=eastwest;newEdgeStyle={&quot;edgeStyle&quot;:&quot;elbowEdgeStyle&quot;,&quot;elbow&quot;:&quot;vertical&quot;,&quot;curved&quot;:0,&quot;rounded&quot;:0};" vertex="1" parent="V1PZ9N-IoDOIy4KFMMRO-5">
          <mxGeometry x="45" y="190" width="10" height="75" as="geometry" />
        </mxCell>
        <mxCell id="NEOFkkt0xLwIz-shKQeP-83" value="self call" style="html=1;align=left;spacingLeft=2;endArrow=block;rounded=0;edgeStyle=orthogonalEdgeStyle;curved=0;rounded=0;" edge="1" target="NEOFkkt0xLwIz-shKQeP-82" parent="V1PZ9N-IoDOIy4KFMMRO-5">
          <mxGeometry relative="1" as="geometry">
            <mxPoint x="50" y="205" as="sourcePoint" />
            <Array as="points">
              <mxPoint x="80" y="205" />
              <mxPoint x="80" y="255" />
            </Array>
          </mxGeometry>
        </mxCell>
        <mxCell id="V1PZ9N-IoDOIy4KFMMRO-7" value="manage teacher" style="html=1;verticalAlign=bottom;endArrow=block;edgeStyle=elbowEdgeStyle;elbow=vertical;curved=0;rounded=0;" parent="1" edge="1" source="aM9ryv3xv72pqoxQDRHE-5">
          <mxGeometry relative="1" as="geometry">
            <mxPoint x="300" y="170" as="sourcePoint" />
            <Array as="points">
              <mxPoint x="375" y="170" />
            </Array>
            <mxPoint x="470" y="170" as="targetPoint" />
          </mxGeometry>
        </mxCell>
        <mxCell id="V1PZ9N-IoDOIy4KFMMRO-8" value="add new student" style="html=1;verticalAlign=bottom;endArrow=block;edgeStyle=elbowEdgeStyle;elbow=horizontal;curved=0;rounded=0;" parent="1" edge="1">
          <mxGeometry x="-0.0526" relative="1" as="geometry">
            <mxPoint x="480" y="230" as="sourcePoint" />
            <Array as="points">
              <mxPoint x="565" y="230" />
            </Array>
            <mxPoint x="660" y="230" as="targetPoint" />
            <mxPoint as="offset" />
          </mxGeometry>
        </mxCell>
        <mxCell id="V1PZ9N-IoDOIy4KFMMRO-9" value="" style="endArrow=block;endFill=1;html=1;edgeStyle=orthogonalEdgeStyle;align=left;verticalAlign=top;rounded=0;" parent="1" edge="1">
          <mxGeometry x="-1" relative="1" as="geometry">
            <mxPoint x="660" y="290" as="sourcePoint" />
            <mxPoint x="850" y="290" as="targetPoint" />
          </mxGeometry>
        </mxCell>
        <mxCell id="V1PZ9N-IoDOIy4KFMMRO-11" value="registered student" style="edgeLabel;html=1;align=center;verticalAlign=middle;resizable=0;points=[];" parent="V1PZ9N-IoDOIy4KFMMRO-9" vertex="1" connectable="0">
          <mxGeometry x="0.61" y="4" relative="1" as="geometry">
            <mxPoint x="-53" y="-6" as="offset" />
          </mxGeometry>
        </mxCell>
        <mxCell id="V1PZ9N-IoDOIy4KFMMRO-21" value="" style="endArrow=block;endFill=1;html=1;edgeStyle=orthogonalEdgeStyle;align=left;verticalAlign=top;rounded=0;" parent="1" edge="1">
          <mxGeometry x="-1" relative="1" as="geometry">
            <mxPoint x="660" y="399" as="sourcePoint" />
            <mxPoint x="850" y="399" as="targetPoint" />
          </mxGeometry>
        </mxCell>
        <mxCell id="V1PZ9N-IoDOIy4KFMMRO-23" value="get attenders and generate report" style="html=1;verticalAlign=bottom;endArrow=open;dashed=1;endSize=8;edgeStyle=elbowEdgeStyle;elbow=vertical;curved=0;rounded=0;" parent="1" target="NEOFkkt0xLwIz-shKQeP-18" edge="1">
          <mxGeometry x="-0.737" relative="1" as="geometry">
            <mxPoint x="90" y="440" as="targetPoint" />
            <mxPoint x="850.5" y="440" as="sourcePoint" />
            <Array as="points">
              <mxPoint x="795.5" y="440" />
            </Array>
            <mxPoint as="offset" />
          </mxGeometry>
        </mxCell>
        <mxCell id="V1PZ9N-IoDOIy4KFMMRO-25" value="scanning barcode&amp;nbsp;" style="text;html=1;align=center;verticalAlign=middle;resizable=0;points=[];autosize=1;strokeColor=none;fillColor=none;" parent="1" vertex="1">
          <mxGeometry x="690" y="370" width="120" height="30" as="geometry" />
        </mxCell>
        <mxCell id="V1PZ9N-IoDOIy4KFMMRO-27" value="" style="endArrow=block;endFill=1;html=1;edgeStyle=orthogonalEdgeStyle;align=left;verticalAlign=top;rounded=0;" parent="1" edge="1">
          <mxGeometry x="-1" relative="1" as="geometry">
            <mxPoint x="655" y="510" as="sourcePoint" />
            <mxPoint x="845" y="510" as="targetPoint" />
          </mxGeometry>
        </mxCell>
        <mxCell id="V1PZ9N-IoDOIy4KFMMRO-29" value="download / upload notes" style="edgeLabel;html=1;align=center;verticalAlign=middle;resizable=0;points=[];" parent="1" vertex="1" connectable="0">
          <mxGeometry x="579.7777777777776" y="410" as="geometry">
            <mxPoint x="173" y="92" as="offset" />
          </mxGeometry>
        </mxCell>
        <mxCell id="V1PZ9N-IoDOIy4KFMMRO-30" value="" style="endArrow=block;endFill=1;html=1;edgeStyle=orthogonalEdgeStyle;align=left;verticalAlign=top;rounded=0;" parent="1" edge="1">
          <mxGeometry x="-1" relative="1" as="geometry">
            <mxPoint x="475" y="550" as="sourcePoint" />
            <mxPoint x="845" y="550" as="targetPoint" />
          </mxGeometry>
        </mxCell>
        <mxCell id="V1PZ9N-IoDOIy4KFMMRO-31" value="download / upload notes" style="edgeLabel;html=1;align=center;verticalAlign=middle;resizable=0;points=[];" parent="V1PZ9N-IoDOIy4KFMMRO-30" vertex="1" connectable="0">
          <mxGeometry x="0.61" y="4" relative="1" as="geometry">
            <mxPoint x="-208" y="-11" as="offset" />
          </mxGeometry>
        </mxCell>
        <mxCell id="V1PZ9N-IoDOIy4KFMMRO-33" value="" style="endArrow=block;endFill=1;html=1;edgeStyle=orthogonalEdgeStyle;align=left;verticalAlign=top;rounded=0;" parent="1" edge="1">
          <mxGeometry x="-1" relative="1" as="geometry">
            <mxPoint x="655" y="620" as="sourcePoint" />
            <mxPoint x="845" y="620" as="targetPoint" />
          </mxGeometry>
        </mxCell>
        <mxCell id="V1PZ9N-IoDOIy4KFMMRO-34" value="student pays fees" style="edgeLabel;html=1;align=center;verticalAlign=middle;resizable=0;points=[];" parent="1" vertex="1" connectable="0">
          <mxGeometry x="589.9977777777776" y="410" as="geometry">
            <mxPoint x="161" y="202" as="offset" />
          </mxGeometry>
        </mxCell>
        <mxCell id="V1PZ9N-IoDOIy4KFMMRO-35" value="generate payment receipt" style="html=1;verticalAlign=bottom;endArrow=open;dashed=1;endSize=8;edgeStyle=elbowEdgeStyle;elbow=vertical;curved=0;rounded=0;" parent="1" edge="1">
          <mxGeometry x="-0.1075" relative="1" as="geometry">
            <mxPoint x="657" y="660" as="targetPoint" />
            <mxPoint x="843" y="660" as="sourcePoint" />
            <Array as="points">
              <mxPoint x="788" y="660" />
            </Array>
            <mxPoint as="offset" />
          </mxGeometry>
        </mxCell>
        <mxCell id="V1PZ9N-IoDOIy4KFMMRO-37" value="send receipt via whatsapp" style="html=1;verticalAlign=bottom;endArrow=open;dashed=1;endSize=8;edgeStyle=elbowEdgeStyle;elbow=vertical;curved=0;rounded=0;" parent="1" edge="1">
          <mxGeometry y="-10" relative="1" as="geometry">
            <mxPoint x="664" y="680" as="targetPoint" />
            <mxPoint x="850" y="680" as="sourcePoint" />
            <Array as="points">
              <mxPoint x="787" y="700" />
            </Array>
            <mxPoint as="offset" />
          </mxGeometry>
        </mxCell>
        <mxCell id="V1PZ9N-IoDOIy4KFMMRO-48" value="&lt;span style=&quot;color: rgb(0, 0, 0); font-family: Helvetica; font-size: 11px; font-style: normal; font-variant-ligatures: normal; font-variant-caps: normal; font-weight: 400; letter-spacing: normal; orphans: 2; text-align: center; text-indent: 0px; text-transform: none; widows: 2; word-spacing: 0px; -webkit-text-stroke-width: 0px; background-color: rgb(255, 255, 255); text-decoration-thickness: initial; text-decoration-style: initial; text-decoration-color: initial; float: none; display: inline !important;&quot;&gt;check&lt;/span&gt;" style="text;whiteSpace=wrap;html=1;" parent="1" vertex="1">
          <mxGeometry x="875" y="640" width="60" height="40" as="geometry" />
        </mxCell>
        <mxCell id="NEOFkkt0xLwIz-shKQeP-3" value="&lt;span style=&quot;color: rgb(0, 0, 0); font-family: Helvetica; font-size: 11px; font-style: normal; font-variant-ligatures: normal; font-variant-caps: normal; font-weight: 400; letter-spacing: normal; orphans: 2; text-align: center; text-indent: 0px; text-transform: none; widows: 2; word-spacing: 0px; -webkit-text-stroke-width: 0px; background-color: rgb(255, 255, 255); text-decoration-thickness: initial; text-decoration-style: initial; text-decoration-color: initial; float: none; display: inline !important;&quot;&gt;check&lt;/span&gt;" style="text;whiteSpace=wrap;html=1;" vertex="1" parent="1">
          <mxGeometry x="875" y="400" width="60" height="40" as="geometry" />
        </mxCell>
        <mxCell id="NEOFkkt0xLwIz-shKQeP-6" value="" style="endArrow=classic;html=1;rounded=0;" edge="1" parent="1" source="NEOFkkt0xLwIz-shKQeP-18">
          <mxGeometry width="50" height="50" relative="1" as="geometry">
            <mxPoint x="100" y="170" as="sourcePoint" />
            <mxPoint x="270" y="170" as="targetPoint" />
          </mxGeometry>
        </mxCell>
        <mxCell id="NEOFkkt0xLwIz-shKQeP-8" value="&lt;span style=&quot;color: rgb(0, 0, 0); font-family: Helvetica; font-size: 11px; font-style: normal; font-variant-ligatures: normal; font-variant-caps: normal; font-weight: 400; letter-spacing: normal; orphans: 2; text-align: center; text-indent: 0px; text-transform: none; widows: 2; word-spacing: 0px; -webkit-text-stroke-width: 0px; background-color: rgb(255, 255, 255); text-decoration-thickness: initial; text-decoration-style: initial; text-decoration-color: initial; float: none; display: inline !important;&quot;&gt;manage teacher&lt;/span&gt;" style="text;whiteSpace=wrap;html=1;" vertex="1" parent="1">
          <mxGeometry x="140" y="140" width="110" height="40" as="geometry" />
        </mxCell>
        <mxCell id="NEOFkkt0xLwIz-shKQeP-10" value="&lt;span style=&quot;color: rgb(0, 0, 0); font-family: Helvetica; font-size: 11px; font-style: normal; font-variant-ligatures: normal; font-variant-caps: normal; font-weight: 400; letter-spacing: normal; orphans: 2; text-align: center; text-indent: 0px; text-transform: none; widows: 2; word-spacing: 0px; -webkit-text-stroke-width: 0px; background-color: rgb(255, 255, 255); text-decoration-thickness: initial; text-decoration-style: initial; text-decoration-color: initial; float: none; display: inline !important;&quot;&gt;manage student&lt;/span&gt;" style="text;whiteSpace=wrap;html=1;" vertex="1" parent="1">
          <mxGeometry x="340" y="190" width="110" height="40" as="geometry" />
        </mxCell>
        <mxCell id="NEOFkkt0xLwIz-shKQeP-12" value="" style="endArrow=classic;html=1;rounded=0;exitX=0.6;exitY=0.438;exitDx=0;exitDy=0;exitPerimeter=0;" edge="1" parent="1">
          <mxGeometry width="50" height="50" relative="1" as="geometry">
            <mxPoint x="270" y="219.99999999999997" as="sourcePoint" />
            <mxPoint x="464.4999999999998" y="219.99999999999997" as="targetPoint" />
          </mxGeometry>
        </mxCell>
        <mxCell id="NEOFkkt0xLwIz-shKQeP-13" value="&lt;span style=&quot;color: rgb(0, 0, 0); font-family: Helvetica; font-size: 11px; font-style: normal; font-variant-ligatures: normal; font-variant-caps: normal; font-weight: 400; letter-spacing: normal; orphans: 2; text-align: center; text-indent: 0px; text-transform: none; widows: 2; word-spacing: 0px; -webkit-text-stroke-width: 0px; background-color: rgb(255, 255, 255); text-decoration-thickness: initial; text-decoration-style: initial; text-decoration-color: initial; float: none; display: inline !important;&quot;&gt;manage student&lt;/span&gt;" style="text;whiteSpace=wrap;html=1;" vertex="1" parent="1">
          <mxGeometry x="130" y="190" width="110" height="40" as="geometry" />
        </mxCell>
        <mxCell id="NEOFkkt0xLwIz-shKQeP-15" value="" style="endArrow=classic;html=1;rounded=0;" edge="1" parent="1" source="NEOFkkt0xLwIz-shKQeP-18">
          <mxGeometry width="50" height="50" relative="1" as="geometry">
            <mxPoint x="95" y="220" as="sourcePoint" />
            <mxPoint x="275" y="220" as="targetPoint" />
          </mxGeometry>
        </mxCell>
        <mxCell id="NEOFkkt0xLwIz-shKQeP-18" value="Admin" style="shape=umlLifeline;perimeter=lifelinePerimeter;whiteSpace=wrap;html=1;container=1;dropTarget=0;collapsible=0;recursiveResize=0;outlineConnect=0;portConstraint=eastwest;newEdgeStyle={&quot;edgeStyle&quot;:&quot;elbowEdgeStyle&quot;,&quot;elbow&quot;:&quot;vertical&quot;,&quot;curved&quot;:0,&quot;rounded&quot;:0};" vertex="1" parent="1">
          <mxGeometry x="20" y="-365" width="100" height="1205" as="geometry" />
        </mxCell>
        <mxCell id="NEOFkkt0xLwIz-shKQeP-21" value="" style="html=1;points=[];perimeter=orthogonalPerimeter;outlineConnect=0;targetShapes=umlLifeline;portConstraint=eastwest;newEdgeStyle={&quot;edgeStyle&quot;:&quot;elbowEdgeStyle&quot;,&quot;elbow&quot;:&quot;vertical&quot;,&quot;curved&quot;:0,&quot;rounded&quot;:0};" vertex="1" parent="NEOFkkt0xLwIz-shKQeP-18">
          <mxGeometry x="45" y="75" width="10" height="75" as="geometry" />
        </mxCell>
        <mxCell id="NEOFkkt0xLwIz-shKQeP-22" value="" style="endArrow=classic;html=1;rounded=0;" edge="1" parent="1" target="V1PZ9N-IoDOIy4KFMMRO-5">
          <mxGeometry width="50" height="50" relative="1" as="geometry">
            <mxPoint x="80" y="-280" as="sourcePoint" />
            <mxPoint x="130" y="-330" as="targetPoint" />
          </mxGeometry>
        </mxCell>
        <mxCell id="NEOFkkt0xLwIz-shKQeP-23" value="login system" style="text;html=1;align=center;verticalAlign=middle;resizable=0;points=[];autosize=1;strokeColor=none;fillColor=none;" vertex="1" parent="1">
          <mxGeometry x="80" y="-312" width="90" height="30" as="geometry" />
        </mxCell>
        <mxCell id="NEOFkkt0xLwIz-shKQeP-24" value="validation successful" style="html=1;verticalAlign=bottom;endArrow=open;dashed=1;endSize=8;edgeStyle=elbowEdgeStyle;elbow=vertical;curved=0;rounded=0;" edge="1" parent="1">
          <mxGeometry x="-0.7629" relative="1" as="geometry">
            <mxPoint x="840" y="-230" as="sourcePoint" />
            <mxPoint x="80" y="-230" as="targetPoint" />
            <mxPoint as="offset" />
          </mxGeometry>
        </mxCell>
        <mxCell id="NEOFkkt0xLwIz-shKQeP-36" value="check" style="text;html=1;align=center;verticalAlign=middle;resizable=0;points=[];autosize=1;strokeColor=none;fillColor=none;" vertex="1" parent="1">
          <mxGeometry x="875" y="-250" width="50" height="30" as="geometry" />
        </mxCell>
        <mxCell id="NEOFkkt0xLwIz-shKQeP-37" value="" style="endArrow=classic;html=1;rounded=0;" edge="1" parent="1">
          <mxGeometry width="50" height="50" relative="1" as="geometry">
            <mxPoint x="280" y="-160" as="sourcePoint" />
            <mxPoint x="849.93" y="-160" as="targetPoint" />
          </mxGeometry>
        </mxCell>
        <mxCell id="NEOFkkt0xLwIz-shKQeP-38" value="login system" style="text;html=1;align=center;verticalAlign=middle;resizable=0;points=[];autosize=1;strokeColor=none;fillColor=none;" vertex="1" parent="1">
          <mxGeometry x="280" y="-190" width="90" height="30" as="geometry" />
        </mxCell>
        <mxCell id="NEOFkkt0xLwIz-shKQeP-39" value="validation successful" style="html=1;verticalAlign=bottom;endArrow=open;dashed=1;endSize=8;edgeStyle=elbowEdgeStyle;elbow=vertical;curved=0;rounded=0;" edge="1" parent="1" target="aM9ryv3xv72pqoxQDRHE-5">
          <mxGeometry x="-0.7629" relative="1" as="geometry">
            <mxPoint x="840" y="-119.86" as="sourcePoint" />
            <mxPoint x="80" y="-119.86" as="targetPoint" />
            <mxPoint as="offset" />
          </mxGeometry>
        </mxCell>
        <mxCell id="NEOFkkt0xLwIz-shKQeP-42" value="" style="endArrow=classic;html=1;rounded=0;" edge="1" parent="1">
          <mxGeometry width="50" height="50" relative="1" as="geometry">
            <mxPoint x="480" y="-50" as="sourcePoint" />
            <mxPoint x="850" y="-50" as="targetPoint" />
          </mxGeometry>
        </mxCell>
        <mxCell id="NEOFkkt0xLwIz-shKQeP-43" value="login system" style="text;html=1;align=center;verticalAlign=middle;resizable=0;points=[];autosize=1;strokeColor=none;fillColor=none;" vertex="1" parent="1">
          <mxGeometry x="480" y="-80" width="90" height="30" as="geometry" />
        </mxCell>
        <mxCell id="NEOFkkt0xLwIz-shKQeP-44" value="validation successful" style="html=1;verticalAlign=bottom;endArrow=open;dashed=1;endSize=8;edgeStyle=elbowEdgeStyle;elbow=vertical;curved=0;rounded=0;" edge="1" parent="1">
          <mxGeometry x="-0.5195" y="-10" relative="1" as="geometry">
            <mxPoint x="847.75" y="-9.719999999999999" as="sourcePoint" />
            <mxPoint x="472.25" y="-10" as="targetPoint" />
            <mxPoint as="offset" />
          </mxGeometry>
        </mxCell>
        <mxCell id="NEOFkkt0xLwIz-shKQeP-50" value="check" style="text;html=1;align=center;verticalAlign=middle;resizable=0;points=[];autosize=1;strokeColor=none;fillColor=none;" vertex="1" parent="1">
          <mxGeometry x="990" y="-160" width="50" height="30" as="geometry" />
        </mxCell>
        <mxCell id="NEOFkkt0xLwIz-shKQeP-51" value="check" style="text;html=1;align=center;verticalAlign=middle;resizable=0;points=[];autosize=1;strokeColor=none;fillColor=none;" vertex="1" parent="1">
          <mxGeometry x="875" y="-40" width="50" height="30" as="geometry" />
        </mxCell>
        <mxCell id="NEOFkkt0xLwIz-shKQeP-52" value="" style="endArrow=classic;html=1;rounded=0;" edge="1" parent="1" source="V1PZ9N-IoDOIy4KFMMRO-3">
          <mxGeometry width="50" height="50" relative="1" as="geometry">
            <mxPoint x="670" y="50" as="sourcePoint" />
            <mxPoint x="845" y="50" as="targetPoint" />
          </mxGeometry>
        </mxCell>
        <mxCell id="NEOFkkt0xLwIz-shKQeP-53" value="validation successful" style="html=1;verticalAlign=bottom;endArrow=open;dashed=1;endSize=8;edgeStyle=elbowEdgeStyle;elbow=vertical;curved=0;rounded=0;" edge="1" parent="1" target="V1PZ9N-IoDOIy4KFMMRO-3">
          <mxGeometry x="-0.2783" relative="1" as="geometry">
            <mxPoint x="847.75" y="90.28" as="sourcePoint" />
            <mxPoint x="472.25" y="90" as="targetPoint" />
            <mxPoint as="offset" />
          </mxGeometry>
        </mxCell>
        <mxCell id="NEOFkkt0xLwIz-shKQeP-54" value="login system" style="text;html=1;align=center;verticalAlign=middle;resizable=0;points=[];autosize=1;strokeColor=none;fillColor=none;" vertex="1" parent="1">
          <mxGeometry x="660" y="20" width="90" height="30" as="geometry" />
        </mxCell>
        <mxCell id="NEOFkkt0xLwIz-shKQeP-56" value="check" style="text;html=1;align=center;verticalAlign=middle;resizable=0;points=[];autosize=1;strokeColor=none;fillColor=none;" vertex="1" parent="1">
          <mxGeometry x="870" y="60" width="50" height="30" as="geometry" />
        </mxCell>
      </root>
    </mxGraphModel>
  </diagram>
</mxfile>
